ffmpeg started on 2016-11-27 at 06:10:46
Report written to "Output/NVENCh264/results/ffmpeg/old_town_cross_2160p50llhq4000k.log"
Command line:
Tools/ffmpeg/ffmpeg -benchmark -y -i Input/y4m/old_town_cross_2160p50.y4m -c:v h264_nvenc -preset llhq -b:v 4000k -an Output/NVENCh264/encoded/old_town_cross_2160p50llhq4000k.mkv
ffmpeg version N-82227-gdb23fde Copyright (c) 2000-2016 the FFmpeg developers
  built with gcc 5.4.0 (Ubuntu 5.4.0-6ubuntu1~16.04.2) 20160609
  configuration: --prefix=/home/jaroslav/ffmpeg_build --pkg-config-flags=--static --extra-cflags=-I/home/jaroslav/ffmpeg_build/include --extra-ldflags=-L/home/jaroslav/ffmpeg_build/lib --bindir=/home/jaroslav/bin --enable-gpl --enable-libass --enable-libfdk-aac --enable-libfreetype --enable-libmp3lame --enable-libopus --enable-libtheora --enable-libvorbis --enable-libvpx --enable-libx264 --enable-libx265 --enable-nvenc --enable-libmfx --enable-libxvid --enable-libgsm --enable-libopencore-amrnb --enable-version3 --enable-nonfree
  libavutil      55. 35.100 / 55. 35.100
  libavcodec     57. 66.101 / 57. 66.101
  libavformat    57. 57.100 / 57. 57.100
  libavdevice    57.  2.100 / 57.  2.100
  libavfilter     6. 66.100 /  6. 66.100
  libswscale      4.  3.100 /  4.  3.100
  libswresample   2.  4.100 /  2.  4.100
  libpostproc    54.  2.100 / 54.  2.100
Input #0, yuv4mpegpipe, from 'Input/y4m/old_town_cross_2160p50.y4m':
  Duration: 00:00:10.00, start: 0.000000, bitrate: 4976642 kb/s
    Stream #0:0: Video: rawvideo (I420 / 0x30323449), yuv420p(progressive), 3840x2160, SAR 1:1 DAR 16:9, 50 fps, 50 tbr, 50 tbn, 50 tbc
[h264_nvenc @ 0x44a9120] The variable bitrate rate-control requires the 'qmin' and/or 'qmax' option set.
Output #0, matroska, to 'Output/NVENCh264/encoded/old_town_cross_2160p50llhq4000k.mkv':
  Metadata:
    encoder         : Lavf57.57.100
    Stream #0:0: Video: h264 (h264_nvenc) (Main) (H264 / 0x34363248), yuv420p, 3840x2160 [SAR 1:1 DAR 16:9], q=-1--1, 4000 kb/s, 50 fps, 1k tbn, 50 tbc
    Metadata:
      encoder         : Lavc57.66.101 h264_nvenc
    Side data:
      cpb: bitrate max/min/avg: 0/0/4000000 buffer size: 8000000 vbv_delay: -1
Stream mapping:
  Stream #0:0 -> #0:0 (rawvideo (native) -> h264 (h264_nvenc))
Press [q] to stop, [?] for help
frame=   19 fps=0.0 q=0.0 size=       0kB time=00:00:00.00 bitrate=N/A speed=   0x    frame=   37 fps= 36 q=41.0 size=       1kB time=00:00:00.12 bitrate=  49.4kbits/s speed=0.119x    frame=   55 fps= 36 q=41.0 size=       1kB time=00:00:00.48 bitrate=  12.4kbits/s speed=0.313x    frame=   73 fps= 36 q=39.0 size=       1kB time=00:00:00.84 bitrate=   7.1kbits/s speed=0.411x    frame=   91 fps= 36 q=36.0 size=       1kB time=00:00:01.20 bitrate=   5.0kbits/s speed=0.469x    frame=   99 fps= 32 q=36.0 size=       1kB time=00:00:01.36 bitrate=   4.4kbits/s speed=0.444x    frame=  117 fps= 33 q=36.0 size=       1kB time=00:00:01.72 bitrate=   3.5kbits/s speed=0.48x    frame=  135 fps= 33 q=36.0 size=       1kB time=00:00:02.08 bitrate=   2.9kbits/s speed=0.508x    frame=  153 fps= 33 q=36.0 size=       1kB time=00:00:02.44 bitrate=   2.4kbits/s speed=0.53x    frame=  171 fps= 33 q=36.0 size=       1kB time=00:00:02.80 bitrate=   2.1kbits/s speed=0.547x    frame=  189 fps= 34 q=36.0 size=       1kB time=00:00:03.16 bitrate=   1.9kbits/s speed=0.561x    frame=  207 fps= 34 q=36.0 size=       1kB time=00:00:03.52 bitrate=   1.7kbits/s speed=0.573x    frame=  225 fps= 34 q=36.0 size=       1kB time=00:00:03.88 bitrate=   1.5kbits/s speed=0.582x    frame=  243 fps= 34 q=36.0 size=       1kB time=00:00:04.24 bitrate=   1.4kbits/s speed=0.591x    frame=  261 fps= 34 q=36.0 size=       1kB time=00:00:04.60 bitrate=   1.3kbits/s speed=0.598x    frame=  279 fps= 34 q=36.0 size=       1kB time=00:00:04.96 bitrate=   1.2kbits/s speed=0.605x    frame=  297 fps= 34 q=42.0 size=    2349kB time=00:00:05.32 bitrate=3615.7kbits/s speed=0.61x    frame=  315 fps= 34 q=41.0 size=    2349kB time=00:00:05.68 bitrate=3386.5kbits/s speed=0.615x    frame=  325 fps= 33 q=41.0 size=    2349kB time=00:00:05.88 bitrate=3271.4kbits/s speed=0.599x    frame=  343 fps= 33 q=37.0 size=    2349kB time=00:00:06.24 bitrate=3082.7kbits/s speed=0.604x    frame=  361 fps= 33 q=36.0 size=    2349kB time=00:00:06.60 bitrate=2914.6kbits/s speed=0.608x    frame=  379 fps= 33 q=36.0 size=    2349kB time=00:00:06.96 bitrate=2763.8kbits/s speed=0.612x    frame=  397 fps= 33 q=36.0 size=    2349kB time=00:00:07.32 bitrate=2627.9kbits/s speed=0.616x    frame=  415 fps= 33 q=36.0 size=    2349kB time=00:00:07.68 bitrate=2504.7kbits/s speed=0.62x    frame=  433 fps= 34 q=37.0 size=    2349kB time=00:00:08.04 bitrate=2392.6kbits/s speed=0.623x    frame=  444 fps= 33 q=36.0 size=    2349kB time=00:00:08.26 bitrate=2328.9kbits/s speed=0.612x    frame=  462 fps= 33 q=36.0 size=    2349kB time=00:00:08.62 bitrate=2231.6kbits/s speed=0.615x    frame=  480 fps= 33 q=36.0 size=    2349kB time=00:00:08.98 bitrate=2142.2kbits/s speed=0.618x    frame=  498 fps= 33 q=39.0 size=    2349kB time=00:00:09.34 bitrate=2059.6kbits/s speed=0.621x    frame=  500 fps= 33 q=36.0 Lsize=    4792kB time=00:00:09.98 bitrate=3933.0kbits/s speed=0.659x    
video:4788kB audio:0kB subtitle:0kB other streams:0kB global headers:0kB muxing overhead: 0.088627%
bench: utime=1.120s
bench: maxrss=1408172kB
